<?xml version="1.0" standalone="no"?>
<!DOCTYPE svg PUBLIC "-//W3C//DTD SVG 20010904//EN"
 "http://www.w3.org/TR/2001/REC-SVG-20010904/DTD/svg10.dtd">
<svg version="1.0" xmlns="http://www.w3.org/2000/svg"
 width="500.000000pt" height="500.000000pt" viewBox="0 0 500.000000 500.000000"
 preserveAspectRatio="xMidYMid meet">

<g transform="translate(0.000000,500.000000) scale(0.100000,-0.100000)"
fill="#000000" stroke="none">
<path d="M1800 4770 c-273 -71 -480 -280 -550 -554 -19 -74 -20 -111 -20 -580
0 -538 -2 -568 -51 -642 -13 -20 -101 -94 -199 -169 -96 -73 -187 -145 -202
-161 -72 -77 -79 -216 -16 -307 11 -15 99 -98 196 -184 204 -179 216 -192 245
-253 21 -44 22 -58 28 -575 5 -520 5 -531 28 -595 53 -151 113 -243 220 -342
135 -125 292 -186 504 -195 l127 -6 0 250 0 250 -82 5 c-118 8 -165 24 -219
78 -79 79 -79 76 -79 616 0 369 -3 488 -14 546 -36 183 -97 292 -242 433
l-103 101 72 59 c92 77 157 159 206 259 76 154 74 137 80 751 7 610 3 577 75
653 54 58 99 75 209 80 l97 4 0 249 0 249 -117 -1 c-83 0 -141 -6 -193 -19z"/>
<path d="M2880 4540 l0 -250 83 0 c143 0 222 -43 274 -148 l28 -57 5 -550 6
-550 27 -80 c50 -148 150 -291 261 -370 30 -22 56 -43 56 -47 0 -3 -48 -55
-108 -115 -119 -120 -167 -193 -210 -318 l-27 -80 -5 -530 c-6 -590 -3 -563
-77 -645 -53 -59 -103 -79 -217 -87 l-96 -6 0 -250 0 -250 133 6 c151 6 227
26 348 88 182 95 317 261 380 469 22 73 23 92 28 600 l6 525 28 47 c18 32 89
102 210 208 222 196 267 255 267 351 0 39 -25 114 -50 149 -12 17 -95 86 -184
152 -190 142 -221 170 -249 223 -22 39 -22 51 -28 585 -6 575 -5 562 -54 700
-44 124 -165 276 -284 354 -136 90 -259 126 -438 126 l-113 0 0 -250z"/>
</g>
</svg>
