<?xml version="1.0" standalone="no"?>
<!DOCTYPE svg PUBLIC "-//W3C//DTD SVG 20010904//EN"
 "http://www.w3.org/TR/2001/REC-SVG-20010904/DTD/svg10.dtd">
<svg version="1.0" xmlns="http://www.w3.org/2000/svg"
 width="16.000000pt" height="16.000000pt" viewBox="0 0 16.000000 16.000000"
 preserveAspectRatio="xMidYMid meet">

<g transform="translate(0.000000,16.000000) scale(0.100000,-0.100000)"
fill="#000000" stroke="none">
<path d="M44 139 c-8 -14 -8 -104 0 -118 4 -6 12 -11 19 -11 8 0 8 3 -1 12
-16 16 -16 100 0 116 9 9 9 12 1 12 -7 0 -15 -5 -19 -11z"/>
<path d="M98 139 c6 -7 12 -34 12 -59 0 -25 -6 -52 -12 -59 -11 -11 -10 -13 2
-9 31 10 31 126 0 136 -12 4 -13 2 -2 -9z"/>
</g>
</svg>
