<?xml version="1.0" standalone="no"?>
<!DOCTYPE svg PUBLIC "-//W3C//DTD SVG 20010904//EN"
 "http://www.w3.org/TR/2001/REC-SVG-20010904/DTD/svg10.dtd">
<svg version="1.0" xmlns="http://www.w3.org/2000/svg"
 width="32.000000pt" height="32.000000pt" viewBox="0 0 32.000000 32.000000"
 preserveAspectRatio="xMidYMid meet">

<g transform="translate(0.000000,32.000000) scale(0.100000,-0.100000)"
fill="#000000" stroke="none">
<path d="M102 295 c-17 -12 -22 -26 -22 -57 0 -25 -7 -49 -17 -60 -15 -17 -15
-19 0 -36 10 -11 17 -35 17 -60 0 -31 5 -45 22 -57 21 -14 23 -14 27 2 2 9 -2
19 -8 21 -6 2 -11 23 -11 46 0 23 -5 47 -12 54 -9 9 -9 15 0 24 7 7 12 30 12
53 0 23 5 46 11 52 20 20 6 34 -19 18z"/>
<path d="M190 297 c0 -9 5 -19 10 -22 6 -3 10 -25 10 -49 0 -23 5 -47 12 -54
9 -9 9 -15 0 -24 -7 -7 -12 -31 -12 -54 0 -23 -5 -44 -11 -46 -6 -2 -10 -12
-8 -21 4 -16 6 -16 27 -2 17 12 22 26 22 57 0 25 7 49 17 60 15 16 15 20 0 36
-8 9 -17 37 -19 61 -2 32 -9 48 -25 59 -21 13 -23 13 -23 -1z"/>
</g>
</svg>
